[2026-03-14 19:39:20] [INFO] Jarvis Desktop launcher started.
[2026-03-14 19:39:20] [INFO] Runtime log path: C:\Jarvis\logs\runtime_2026-03-14_19-39-20.txt
[2026-03-14 19:39:20] [INFO] Launcher executable: C:\Users\anden\AppData\Local\Python\pythoncore-3.14-64\pythonw.exe
[2026-03-14 19:39:20] [INFO] Root directory: C:\Jarvis
[2026-03-14 19:39:20] [INFO] Target script: C:\Jarvis\jarvis_desktop_test.py
[2026-03-14 19:39:20] [INFO] Diagnostics script: C:\Jarvis\desktop\jarvis_diagnostics.pyw
[2026-03-14 19:39:20] [INFO] Recovery attempts allowed: 3
[2026-03-14 19:39:20] [INFO] Voice hook ready: C:\Jarvis\jarvis_voice.py
[2026-03-14 19:39:20] [INFO] Starting desktop renderer process. attempt=1
[2026-03-14 19:39:20] [INFO] Child executable: C:\Users\anden\AppData\Local\Python\pythoncore-3.14-64\pythonw.exe
[2026-03-14 19:39:21] [STDOUT] Jarvis Desktop Concept 1 - Version 1.02
[2026-03-14 19:39:21] [STDOUT] Hotkey: Ctrl + Alt + End
[2026-03-14 19:39:21] [STDERR] Traceback (most recent call last):
[2026-03-14 19:39:21] [STDERR]   File "C:\Jarvis\jarvis_desktop_test.py", line 44, in <module>
[2026-03-14 19:39:21] [STDERR]     raise SystemExit(main())
[2026-03-14 19:39:21] [STDERR]                      ~~~~^^
[2026-03-14 19:39:21] [STDERR]   File "C:\Jarvis\jarvis_desktop_test.py", line 36, in main
[2026-03-14 19:39:21] [STDERR]     raise RuntimeError("Jarvis test crash triggered intentionally")
[2026-03-14 19:39:21] [STDERR] RuntimeError: Jarvis test crash triggered intentionally
[2026-03-14 19:39:21] [INFO] Desktop renderer exited. exit_code=1
[2026-03-14 19:39:21] [WARN] Recovery attempt 1/3
[2026-03-14 19:39:22] [INFO] Starting desktop renderer process. attempt=2
[2026-03-14 19:39:22] [INFO] Child executable: C:\Users\anden\AppData\Local\Python\pythoncore-3.14-64\pythonw.exe
[2026-03-14 19:39:22] [STDOUT] Jarvis Desktop Concept 1 - Version 1.02
[2026-03-14 19:39:22] [STDOUT] Hotkey: Ctrl + Alt + End
[2026-03-14 19:39:22] [STDERR] Traceback (most recent call last):
[2026-03-14 19:39:22] [STDERR]   File "C:\Jarvis\jarvis_desktop_test.py", line 44, in <module>
[2026-03-14 19:39:22] [STDERR]     raise SystemExit(main())
[2026-03-14 19:39:22] [STDERR]                      ~~~~^^
[2026-03-14 19:39:22] [STDERR]   File "C:\Jarvis\jarvis_desktop_test.py", line 36, in main
[2026-03-14 19:39:22] [STDERR]     raise RuntimeError("Jarvis test crash triggered intentionally")
[2026-03-14 19:39:22] [STDERR] RuntimeError: Jarvis test crash triggered intentionally
[2026-03-14 19:39:22] [INFO] Desktop renderer exited. exit_code=1
[2026-03-14 19:39:22] [WARN] Recovery attempt 2/3
[2026-03-14 19:39:23] [INFO] Starting desktop renderer process. attempt=3
[2026-03-14 19:39:23] [INFO] Child executable: C:\Users\anden\AppData\Local\Python\pythoncore-3.14-64\pythonw.exe
[2026-03-14 19:39:24] [STDOUT] Jarvis Desktop Concept 1 - Version 1.02
[2026-03-14 19:39:24] [STDOUT] Hotkey: Ctrl + Alt + End
[2026-03-14 19:39:24] [STDERR] Traceback (most recent call last):
[2026-03-14 19:39:24] [STDERR]   File "C:\Jarvis\jarvis_desktop_test.py", line 44, in <module>
[2026-03-14 19:39:24] [STDERR]     raise SystemExit(main())
[2026-03-14 19:39:24] [STDERR]                      ~~~~^^
[2026-03-14 19:39:24] [STDERR]   File "C:\Jarvis\jarvis_desktop_test.py", line 36, in main
[2026-03-14 19:39:24] [STDERR]     raise RuntimeError("Jarvis test crash triggered intentionally")
[2026-03-14 19:39:24] [STDERR] RuntimeError: Jarvis test crash triggered intentionally
[2026-03-14 19:39:24] [INFO] Desktop renderer exited. exit_code=1
[2026-03-14 19:39:24] [ERROR] Crash log written: C:\Jarvis\logs\crash\crash_2026-03-14_19-39-24.txt
[2026-03-14 19:39:24] [INFO] Trying voice line 'Uhm..... Sir, I seem to be malfunctioning.' using voice --text --mode
[2026-03-14 19:39:29] [VOICE_STDOUT] WARNING: malfunction post-process failed, using clean TTS: No module named 'pydub'
[2026-03-14 19:39:29] [VOICE_STDERR] [mp3 @ 0000020D43948700] Estimating duration from bitrate, this may be inaccurate
[2026-03-14 19:39:29] [VOICE_STDERR] Input #0, mp3, from 'C:/Users/anden/AppData/Local/Temp/tmpk3fdza8u.mp3':
[2026-03-14 19:39:29] [VOICE_STDERR]   Duration: 00:00:03.98, start: 0.000000, bitrate: 48 kb/s
[2026-03-14 19:39:29] [VOICE_STDERR]   Stream #0:0: Audio: mp3 (mp3float), 24000 Hz, mono, fltp, 48 kb/s
[2026-03-14 19:39:29] [INFO] Voice line completed: Uhm..... Sir, I seem to be malfunctioning.
[2026-03-14 19:39:29] [INFO] Failure voice step 1/3 success=True line=Uhm..... Sir, I seem to be malfunctioning.
[2026-03-14 19:39:30] [INFO] Trying voice line 'Attempting restart.' using voice --text --mode
[2026-03-14 19:39:33] [VOICE_STDOUT] WARNING: malfunction post-process failed, using clean TTS: No module named 'pydub'
[2026-03-14 19:39:33] [VOICE_STDERR] [mp3 @ 00000275AF164C80] Estimating duration from bitrate, this may be inaccurate
[2026-03-14 19:39:33] [VOICE_STDERR] Input #0, mp3, from 'C:/Users/anden/AppData/Local/Temp/tmpar2mrqjv.mp3':
[2026-03-14 19:39:33] [VOICE_STDERR]   Duration: 00:00:02.06, start: 0.000000, bitrate: 48 kb/s
[2026-03-14 19:39:33] [VOICE_STDERR]   Stream #0:0: Audio: mp3 (mp3float), 24000 Hz, mono, fltp, 48 kb/s
[2026-03-14 19:39:33] [INFO] Voice line completed: Attempting restart.
[2026-03-14 19:39:33] [INFO] Failure voice step 2/3 success=True line=Attempting restart.
[2026-03-14 19:39:34] [INFO] Trying voice line 'Restart failed.' using voice --text --mode
[2026-03-14 19:39:37] [VOICE_STDOUT] WARNING: malfunction post-process failed, using clean TTS: No module named 'pydub'
[2026-03-14 19:39:37] [VOICE_STDERR] [mp3 @ 0000012E8F766700] Estimating duration from bitrate, this may be inaccurate
[2026-03-14 19:39:37] [VOICE_STDERR] Input #0, mp3, from 'C:/Users/anden/AppData/Local/Temp/tmpmot591t6.mp3':
[2026-03-14 19:39:37] [VOICE_STDERR]   Duration: 00:00:01.99, start: 0.000000, bitrate: 48 kb/s
[2026-03-14 19:39:37] [VOICE_STDERR]   Stream #0:0: Audio: mp3 (mp3float), 24000 Hz, mono, fltp, 48 kb/s
[2026-03-14 19:39:37] [INFO] Voice line completed: Restart failed.
[2026-03-14 19:39:37] [INFO] Failure voice step 3/3 success=True line=Restart failed.
[2026-03-14 19:39:38] [INFO] Diagnostics process launched.
